<?xml version="1.0" encoding="UTF-8"?>
<svg version="1.1" xmlns="http://www.w3.org/2000/svg" width="1437" height="1437">
<path d="M0 0 C474.21 0 948.42 0 1437 0 C1437 474.21 1437 948.42 1437 1437 C962.79 1437 488.58 1437 0 1437 C0 962.79 0 488.58 0 0 Z " fill="#FEFEFE" transform="translate(0,0)"/>
<path d="M0 0 C190.41 0 380.82 0 577 0 C577 187.77 577 375.54 577 569 C386.59 569 196.18 569 0 569 C0 381.23 0 193.46 0 0 Z " fill="#9F85BD" transform="translate(431,520)"/>
<path d="M0 0 C190.41 0 380.82 0 577 0 C577 187.77 577 375.54 577 569 C386.59 569 196.18 569 0 569 C0 381.23 0 193.46 0 0 Z M62 65 C62 209.87 62 354.74 62 504 C210.83 504 359.66 504 513 504 C513 359.13 513 214.26 513 65 C364.17 65 215.34 65 62 65 Z " fill="#9F84BD" transform="translate(431,520)"/>
<path d="M0 0 C94.05 0 188.1 0 285 0 C285 84.15 285 168.3 285 255 C190.95 255 96.9 255 0 255 C0 170.85 0 86.7 0 0 Z " fill="#FEFEFE" transform="translate(577,661)"/>
<path d="M0 0 C6.77337774 4.74136442 12.66153489 10.23900195 18.671875 15.88671875 C21.74859352 18.77694344 24.89150358 21.57649033 28.0859375 24.3359375 C32.91258615 28.53216673 37.63526366 32.84988495 42.3671875 37.15234375 C47.88386112 42.15352492 53.49542552 47.02893487 59.17871094 51.83911133 C60.02997559 52.56263794 60.02997559 52.56263794 60.8984375 53.30078125 C61.40036621 53.72528564 61.90229492 54.14979004 62.41943359 54.5871582 C62.94102051 55.053396 63.46260742 55.51963379 64 56 C64.68267818 56.47328861 65.36535637 56.94657722 66.06872177 57.43420792 C69.11686655 61.48380865 68.53787301 65.528898 68.48101807 70.46551514 C68.48443577 71.54290711 68.48785347 72.62029908 68.49137473 73.73033929 C68.49798107 77.35272053 68.47593113 80.97436633 68.45410156 84.59667969 C68.45297369 87.18836957 68.45360577 89.78006074 68.45587158 92.37174988 C68.4579696 97.95772716 68.4454134 103.54351764 68.42292023 109.12944794 C68.39042012 117.20574527 68.37999527 125.28195223 68.37496826 133.35830787 C68.36621247 146.46141662 68.33958923 159.56442579 68.30175781 172.66748047 C68.26504505 185.39631654 68.23672971 198.12512558 68.21972656 210.85400391 C68.21815022 212.03079732 68.21815022 212.03079732 68.21654204 213.23136434 C68.21132191 217.16709237 68.20626707 221.10282059 68.20129442 225.03854895 C68.15982355 257.69243845 68.08936743 290.34620591 68 323 C68.88742323 322.98761071 69.77484646 322.97522142 70.6891613 322.9624567 C132.3900119 322.11035774 194.07947733 321.8662289 255.78572917 321.92797339 C267.52863003 321.93950287 279.27153178 321.94473486 291.01443696 321.94967639 C315.00963094 321.95990277 339.00481479 321.97728056 363 322 C362.99861731 320.50591928 362.99861731 320.50591928 362.99720669 318.98165512 C362.97472543 294.42571868 362.95844366 269.86978361 362.94818783 245.31383896 C362.94309281 233.43741225 362.9361157 221.56099262 362.92456055 209.68457031 C362.92027224 205.05273449 362.91615813 200.42089854 362.91210938 195.7890625 C362.91106555 194.64991992 362.91002173 193.51077734 362.90894628 192.33711529 C362.89825542 179.90944692 362.89927178 167.48195589 362.93270874 155.05432129 C362.93558675 153.96511525 362.93846475 152.8759092 362.94142997 151.75369692 C362.95299987 147.45501406 362.96472998 143.15633276 362.9782474 138.85765553 C363.01483466 126.88312676 362.99055392 114.91385464 362.82686901 102.94034958 C362.7507159 97.25439876 362.73131334 91.5686742 362.71841621 85.88227081 C362.70073596 83.3921426 362.66057613 80.9020479 362.59531975 78.4127121 C362.1083547 59.58468403 362.1083547 59.58468403 366.85560608 54.20587158 C369.96689777 51.30192231 373.35169023 49.17190324 377 47 C378.23845446 45.96114069 379.4525408 44.89064932 380.61328125 43.765625 C388.7761064 36.15801372 388.7761064 36.15801372 392.9375 32.5625 C396.48402117 29.48786523 399.93192821 26.3142413 403.375 23.125 C408.87249958 18.03325503 414.40090653 12.9802463 420 8 C420.69351562 7.37738281 421.38703125 6.75476563 422.1015625 6.11328125 C426.76136364 2 426.76136364 2 429 2 C429 1.34 429 0.68 429 0 C429.66 0 430.32 0 431 0 C431 137.28 431 274.56 431 416 C430.34 416 429.68 416 429 416 C427.50081014 414.07335518 426.11935091 412.1418187 424.75 410.125 C420.71017616 404.31841051 416.49280046 398.68876009 412.125 393.125 C407.23428842 386.88424139 402.41523167 380.6001574 397.67578125 374.24389648 C392.93860752 367.89735812 388.13281006 361.60396147 383.30908203 355.32299805 C382.69403809 354.51902588 382.07899414 353.71505371 381.4453125 352.88671875 C380.78674885 352.06564133 380.1281852 351.2445639 379.44966507 350.39860535 C377.49840726 347.84147308 376.00594245 345.19478257 374.50571823 342.35195923 C370.93870117 336.05016004 367.16779114 329.62142977 360.15504932 326.89320564 C352.38773738 325.24686012 344.48149491 325.43514224 336.5814898 325.60418558 C332.99141789 325.66000942 329.40268423 325.60520482 325.81263733 325.56503296 C318.79789844 325.50393947 311.78729743 325.54395117 304.7728456 325.62002325 C296.59477364 325.70536922 288.41767545 325.6935489 280.23927566 325.67926252 C265.64386284 325.65747961 251.05041121 325.729707 236.45556641 325.85253906 C222.31072536 325.97155511 208.16824605 326.01395294 194.02294922 325.97558594 C178.59366745 325.93384636 163.16543357 325.93290255 147.73622203 326.0041132 C146.08992312 326.01167501 144.44362415 326.01922529 142.79732513 326.02676392 C141.98744955 326.03053942 141.17757397 326.03431493 140.34315671 326.03820485 C134.64936992 326.06229446 128.95599163 326.05854712 123.26218414 326.04476929 C116.32114835 326.02919903 109.38221108 326.06154672 102.4417406 326.15373135 C98.90334133 326.19969167 95.36802153 326.22545411 91.82938576 326.19462204 C77.13498134 325.3099513 77.13498134 325.3099513 64.23491669 330.78341675 C61.54540257 333.87814295 59.81640095 337.33204605 58 341 C56.4197819 343.24862375 54.7237123 345.35494421 53 347.5 C52.16409057 348.58134684 51.33044652 349.66445215 50.5 350.75 C45.5 357.25 40.5 363.75 35.5 370.25 C35.08782227 370.78584717 34.67564453 371.32169434 34.25097656 371.8737793 C33.4144509 372.96123001 32.57786197 374.04863207 31.74121094 375.13598633 C29.70620712 377.78093787 27.67243467 380.42681112 25.640625 383.07421875 C23.58382078 385.75276934 21.52392014 388.42886 19.46142578 391.10302734 C18.39862269 392.4825763 17.33729531 393.86326253 16.27685547 395.24462891 C14.41724924 397.66581159 12.55272972 400.08314784 10.6875 402.5 C10.1006543 403.26594482 9.51380859 404.03188965 8.90917969 404.82104492 C8.06274902 405.91509644 8.06274902 405.91509644 7.19921875 407.03125 C6.70252686 407.67642578 6.20583496 408.32160156 5.6940918 408.98632812 C3.60227847 411.47274927 1.30627454 413.71296634 -1 416 C-1.02286651 363.29289141 -1.0404983 310.58578333 -1.05106533 257.87867076 C-1.0523161 251.66244065 -1.05361042 245.44621056 -1.05493164 239.22998047 C-1.05519395 237.99239057 -1.05545626 236.75480068 -1.05572652 235.47970806 C-1.06008314 215.41542608 -1.06797065 195.35114696 -1.0771528 175.28686668 C-1.08648955 154.71385144 -1.09205566 134.1408377 -1.09408849 113.56782043 C-1.09546368 100.86331691 -1.09981401 88.15882145 -1.10791647 75.45432042 C-1.11318419 66.75378244 -1.11480423 58.05324865 -1.11350138 49.35270919 C-1.11285804 44.32574443 -1.11387504 39.29879379 -1.11920547 34.27183151 C-1.1240429 29.67650245 -1.12433636 25.08119712 -1.12089889 20.48586701 C-1.12047354 18.81693216 -1.12176639 17.14799588 -1.12488318 15.47906388 C-1.12885354 13.22324194 -1.12675934 10.96750748 -1.12304783 8.71168709 C-1.12342755 7.45481279 -1.12380727 6.1979385 -1.1241985 4.90297711 C-1 2 -1 2 0 0 Z " fill="#FEFDFE" transform="translate(504,597)"/>
<path d="M0 0 C0.70920173 -0.00230769 1.41840347 -0.00461538 2.14909616 -0.006993 C4.54364211 -0.01231882 6.93792319 -0.00328764 9.33245564 0.00558662 C11.059212 0.00471508 12.7859681 0.00296506 14.51272279 0.00040829 C19.2718362 -0.00407939 24.03086017 0.00395789 28.78996217 0.01396441 C33.91674674 0.02257622 39.04352598 0.01968037 44.17031574 0.01815987 C53.05751656 0.01710957 61.94468808 0.02340123 70.83188152 0.03463554 C83.68137478 0.05086807 96.53085383 0.05609624 109.38035623 0.05861153 C130.22623924 0.06299217 151.07210663 0.07631126 171.91798115 0.09521675 C192.17156108 0.11356601 212.42513677 0.12772718 232.67872334 0.13623238 C233.92649932 0.13675782 235.1742753 0.13728327 236.45986267 0.13782464 C242.71939253 0.14043466 248.97892241 0.14296209 255.23845232 0.14544845 C307.19324421 0.16619243 359.14801915 0.20142799 411.1027956 0.24609566 C411.1027956 1.56609566 411.1027956 2.88609566 411.1027956 4.24609566 C409.08801086 6.2518184 407.12659728 7.9826562 404.9152956 9.74609566 C403.62566064 10.8102342 402.33794567 11.87670324 401.05201435 12.94531441 C400.39378681 13.48978218 399.73555927 14.03424995 399.05738544 14.59521675 C396.02595065 17.15561671 393.12494016 19.84829437 390.2277956 22.55859566 C386.25019883 26.26519392 382.23842671 29.91569744 378.1262331 33.47265816 C375.58778389 35.69747658 373.09637784 37.97112885 370.6027956 40.24609566 C366.82158959 43.69443071 363.01020054 47.09863694 359.14576435 50.45312691 C355.85953478 53.33721749 352.63207137 56.28630945 349.3996706 59.23047066 C343.26240404 64.61623519 343.26240404 64.61623519 338.18593597 64.65434551 C337.19097113 64.66895244 336.19600628 64.68355937 335.17089099 64.69860893 C334.07996294 64.69942009 332.98903489 64.70023124 331.86504841 64.70106697 C330.70431822 64.71350817 329.54358803 64.72594936 328.3476842 64.73876756 C325.12478591 64.76999955 321.90214169 64.78772177 318.67912376 64.79951918 C315.20298994 64.8153525 311.72700709 64.8481475 308.2509737 64.87831306 C299.85360874 64.94709551 291.45620504 64.98644818 283.05863997 65.02116099 C279.89367422 65.03457091 276.72871707 65.04961367 273.56375861 65.06463127 C259.60326487 65.13052311 245.64276141 65.18663761 231.68214417 65.21786022 C228.26563908 65.22562907 224.84913418 65.23347277 221.43262959 65.24145699 C220.15895084 65.24442075 220.15895084 65.24442075 218.85954122 65.24744438 C205.12159171 65.28101145 191.38467516 65.3727329 177.64719882 65.48864133 C163.52974404 65.60677602 149.41281556 65.67172367 135.29486686 65.68534559 C127.37339526 65.69431705 119.45350412 65.72628953 111.53251934 65.81801224 C104.78207754 65.8960387 98.03355648 65.92563281 91.28270318 65.89365453 C87.8424137 65.8788113 84.40612029 65.88587283 80.96641254 65.95534706 C58.21361362 66.34094765 58.21361362 66.34094765 50.11504346 59.35829681 C47.74140984 56.99677901 45.57399028 54.53940925 43.4887768 51.92111957 C41.48276665 49.49676131 39.16933177 47.48371376 36.7902956 45.43359566 C36.01299091 44.73879097 35.23568623 44.04398628 34.43482685 43.32812691 C33.66525654 42.64105659 32.89568623 41.95398628 32.1027956 41.24609566 C30.39408139 39.70485114 28.68575159 38.16318036 26.9777956 36.62109566 C24.03786503 33.97424228 21.08507838 31.34511318 18.1027956 28.74609566 C14.26283385 25.39962296 10.47438293 21.99841074 6.6965456 18.58203316 C4.93398853 16.99467001 3.16280149 15.41684798 1.3840456 13.84765816 C0.5074831 13.07164253 -0.3690794 12.29562691 -1.2722044 11.49609566 C-2.06368877 10.80000191 -2.85517315 10.10390816 -3.6706419 9.38672066 C-5.98960143 7.15726483 -7.94331247 4.79775361 -9.8972044 2.24609566 C-6.20536661 -0.21512954 -4.40705329 -0.00263816 0 0 Z " fill="#9F84BD" transform="translate(518.8972043991089,588.7539043426514)"/>
<path d="M0 0 C190.41 0 380.82 0 577 0 C577 187.77 577 375.54 577 569 C386.59 569 196.18 569 0 569 C0 381.23 0 193.46 0 0 Z M8 8 C8 190.49 8 372.98 8 561 C192.8 561 377.6 561 568 561 C568 378.51 568 196.02 568 8 C383.2 8 198.4 8 8 8 Z " fill="#9F84BD" transform="translate(431,520)"/>
<path d="M0 0 C148.83 0 297.66 0 451 0 C451 144.87 451 289.74 451 439 C302.17 439 153.34 439 0 439 C0 294.13 0 149.26 0 0 Z M16 6 C23.88380952 15.81030432 33.57593539 24.12538012 43.078125 32.328125 C45.41105074 34.35758073 47.70511245 36.427647 50 38.5 C52.93678465 41.15113994 55.88602542 43.78290171 58.875 46.375 C63.28749974 50.21583986 67.5786253 54.18677337 71.875 58.15625 C72.37854315 58.60556381 72.88208629 59.05487762 73.40088832 59.51780701 C75 61 75 61 76.64200509 62.77723694 C81.35069619 67.55147762 84.81445189 68.81657251 91.47154033 68.94552803 C93.09557126 68.92415181 93.09557126 68.92415181 94.75241089 68.90234375 C95.9200866 68.91467482 97.08776232 68.92700588 98.29082215 68.93971062 C101.51489664 68.96658758 104.73714928 68.96228566 107.96122956 68.94439077 C111.44473868 68.93263668 114.9279575 68.9611989 118.41137695 68.98440552 C125.22908831 69.0231925 132.04629209 69.02395677 138.86408101 69.01056707 C144.40733373 69.00021408 149.95043788 69.00281733 155.49368668 69.0145874 C156.28346884 69.01623748 157.07325101 69.01788756 157.88696597 69.01958764 C159.49155842 69.02297042 161.09615084 69.02637133 162.70074321 69.02979016 C177.73952504 69.06007956 192.7780211 69.04594828 207.81679024 69.01761937 C221.5640924 68.99299556 235.31069816 69.02055219 249.0579028 69.07332373 C263.18569381 69.12714867 277.31316236 69.14767777 291.44105256 69.1314888 C293.04026225 69.12976231 294.63947199 69.12808746 296.23868179 69.12646484 C297.41883456 69.12526709 297.41883456 69.12526709 298.6228288 69.12404513 C304.1557438 69.12058524 309.68834443 69.13869929 315.22118759 69.16552734 C321.96965085 69.19781728 328.71721594 69.1982323 335.46565209 69.15810478 C338.90640477 69.13848471 342.34556697 69.13305465 345.78624344 69.16705704 C349.52354121 69.19620512 353.25651903 69.16970478 356.99362183 69.12939453 C358.61096059 69.16155563 358.61096059 69.16155563 360.26097286 69.19436646 C367.87372986 69.02696627 371.53575125 66.65551503 376.85007775 61.26473808 C377.91428926 60.14369273 377.91428926 60.14369273 379 59 C380.29873211 57.83858484 381.60866668 56.68935061 382.9375 55.5625 C387.13442081 51.90821138 391.2365276 48.15255027 395.34765625 44.40234375 C397.52460996 42.43058156 399.71838674 40.48634663 401.9375 38.5625 C405.34689233 35.60115923 408.67772447 32.55824341 412 29.5 C420.4515526 21.72975003 429.16080988 14.32179581 438 7 C437.67 6.01 437.34 5.02 437 4 C383.80034027 3.95426205 330.60068252 3.91900089 277.40100701 3.89786934 C271.12598055 3.89536781 264.85095413 3.89277918 258.57592773 3.89013672 C257.32663769 3.8896121 256.07734765 3.88908748 254.79020033 3.88854696 C234.53906016 3.87983489 214.2879313 3.86406052 194.03679784 3.84569441 C173.27054618 3.82701765 152.50430046 3.815888 131.73804075 3.81182301 C118.91529827 3.80907333 106.09258776 3.80037631 93.26985512 3.78416707 C84.48707696 3.77362761 75.70431543 3.77039245 66.9215314 3.77299725 C61.84784519 3.77428329 56.77421499 3.772257 51.70053864 3.76158905 C47.06134151 3.75190541 42.42223842 3.75133305 37.7830371 3.75820221 C36.09927831 3.75905205 34.41551381 3.7564737 32.73176637 3.75023364 C30.45346199 3.74227692 28.1755028 3.74649093 25.8972044 3.75390434 C24.62855878 3.7531449 23.35991315 3.75238546 22.05282372 3.75160301 C18.82580373 3.76556764 18.82580373 3.76556764 16 6 Z M6 5 C6 146.24 6 287.48 6 433 C150.87 433 295.74 433 445 433 C445.83475695 422.57661435 445.83475695 422.57661435 446.12584114 412.21094704 C446.12729458 411.52677991 446.12874802 410.84261278 446.13024551 410.13771331 C446.13383982 407.88846681 446.13045032 405.63929094 446.12698364 403.39004517 C446.12813807 401.74372014 446.12972775 400.09739538 446.13171089 398.45107114 C446.13586008 393.96016688 446.13383357 389.46928404 446.13072467 384.97837973 C446.12845269 380.12210544 446.13195913 375.26583472 446.13470459 370.40956116 C446.13914226 360.90858985 446.13819467 351.40762646 446.13529195 341.90665485 C446.13302978 334.18112022 446.13272892 326.45558781 446.13381577 318.73005295 C446.133969 317.62877603 446.13412223 316.5274991 446.13428011 315.39285015 C446.13459985 313.15531306 446.13492406 310.91777598 446.1352527 308.68023889 C446.13810169 287.71693946 446.1348297 266.75364442 446.12945233 245.79034571 C446.12498607 227.82311891 446.12575989 209.85589856 446.13037109 191.88867188 C446.13572925 171.00136756 446.13782575 150.11406708 446.13475883 129.22676218 C446.1344403 126.99703431 446.13412593 124.76730645 446.13381577 122.53757858 C446.13366149 121.44064411 446.13350721 120.34370963 446.13334826 119.21353472 C446.13248674 111.50294743 446.13393816 103.79236258 446.13629532 96.08177567 C446.13910735 86.67688148 446.13832555 77.27199564 446.13301457 67.8671024 C446.13039629 63.07336834 446.12934059 58.27964817 446.13266373 53.48591423 C446.13566552 49.08903349 446.13396986 44.69217936 446.12868617 40.29530101 C446.12757843 38.71333385 446.1281162 37.13136439 446.13056196 35.54939874 C446.14467559 25.65343163 445.78651438 15.8674221 445 6 C440.80370825 6.85545768 438.87700735 8.66395114 435.75 11.625 C434.98260498 12.34502197 434.98260498 12.34502197 434.19970703 13.07958984 C433.07257355 14.13847303 431.94853444 15.20065695 430.82714844 16.265625 C427.52425819 19.40081104 424.1970705 22.51016789 420.875 25.625 C419.84439453 26.59348877 419.84439453 26.59348877 418.79296875 27.58154297 C414.38484856 31.7199725 409.93275813 35.801632 405.421875 39.828125 C402.59447276 42.36366636 399.79596231 44.92993838 397 47.5 C391.69866 52.36919765 386.36726941 57.20354802 381 62 C380.40479781 62.64156249 379.80959563 63.28312498 379.19635701 63.94412875 C374.10408205 69.10740495 370.52689369 70.92348453 363.28249907 71.08859563 C362.18531625 71.07347833 361.08813343 71.05836104 359.95770264 71.04278564 C358.17745583 71.06573893 358.17745583 71.06573893 356.36124444 71.08915591 C353.08806747 71.12315057 349.81720251 71.12160092 346.54396701 71.10443354 C343.00582162 71.0945296 339.46809101 71.13066391 335.93009949 71.1605835 C329.00656322 71.21148833 322.08364803 71.21875694 315.15995613 71.20938244 C309.5290145 71.20223856 303.8982608 71.20927198 298.26734161 71.22628021 C297.4646843 71.22866097 296.66202699 71.23104172 295.83504672 71.23349462 C294.20420801 71.23834186 292.57336932 71.24319839 290.94253066 71.24806413 C275.65994951 71.29153552 260.37772168 71.28293179 245.0951207 71.25852475 C231.13309877 71.23785819 217.17219402 71.28284579 203.21039304 71.35891762 C188.85539223 71.43652867 174.50091925 71.46943803 160.14570737 71.45442462 C152.09390323 71.44678979 144.0430493 71.45659225 135.99141693 71.51328278 C129.13527051 71.56106943 122.28065867 71.56641848 115.42448989 71.51812211 C111.93025975 71.49464871 108.43883103 71.48991268 104.94479179 71.53813171 C81.79724025 71.79402169 81.79724025 71.79402169 74.65401673 65.77411342 C72.19890618 63.33151391 70.11635406 60.74329506 68 58 C66.69968008 56.79664761 65.3743297 55.61808173 64 54.5 C60.42648214 51.41102693 56.96288886 48.21157787 53.5 45 C49.41026627 41.20740599 45.28672803 37.47218704 41.0703125 33.8203125 C36.86570117 30.12342782 32.76346357 26.31197478 28.64697266 22.51757812 C26.92623615 20.93203141 25.20342753 19.34875632 23.48046875 17.765625 C22.32021418 16.69802351 21.16005557 15.63031772 20 14.5625 C19.19042847 13.81867065 19.19042847 13.81867065 18.36450195 13.05981445 C16.11397586 10.98488391 13.93049645 8.92321391 11.875 6.65234375 C9.91636332 4.55922916 9.91636332 4.55922916 6 5 Z " fill="#F8F6FA" transform="translate(493,585)"/>
<path d="M0 0 C6.01458805 3.18886649 8.94144339 8.98180787 11.3125 15.125 C11.51875 15.929375 11.725 16.73375 11.9375 17.5625 C12.55625 15.70625 12.55625 15.70625 13.1875 13.8125 C14.79311247 9.51311117 16.74112992 6.66068504 20.9375 4.5625 C23.72408291 4.62655938 26.47141256 4.75179658 29.25 4.9375 C30.38985352 5.00324219 30.38985352 5.00324219 31.55273438 5.0703125 C35.42816791 5.31273753 39.14570435 5.66942238 42.9375 6.5625 C42.36924786 16.97048659 41.33527395 27.23525755 39.9375 37.5625 C39.37240723 37.55202637 38.80731445 37.54155273 38.22509766 37.53076172 C35.67094347 37.48925212 33.11686018 37.4631904 30.5625 37.4375 C29.67304687 37.42074219 28.78359375 37.40398438 27.8671875 37.38671875 C27.01640625 37.38027344 26.165625 37.37382813 25.2890625 37.3671875 C24.50354004 37.35671387 23.71801758 37.34624023 22.90869141 37.33544922 C20.703035 37.38259873 20.703035 37.38259873 18.9375 39.5625 C17.17652568 43.97361751 16.48444446 48.18324899 15.97265625 52.890625 C15.89472336 53.58949326 15.81679047 54.28836151 15.73649597 55.00840759 C15.4849611 57.27582042 15.24246396 59.54410098 15 61.8125 C14.82782783 63.37808593 14.65497071 64.94359668 14.48144531 66.5090332 C14.13158143 69.66995871 13.78467932 72.83118731 13.43994141 75.99267578 C12.71886446 82.581887 11.9532838 89.16584792 11.1875 95.75 C10.94257273 97.86847391 10.6977662 99.98696179 10.453125 102.10546875 C10.28128058 103.59114937 10.10941885 105.07682799 9.9375 106.5625 C10.73704102 106.55089844 11.53658203 106.53929687 12.36035156 106.52734375 C13.4222168 106.51832031 14.48408203 106.50929688 15.578125 106.5 C16.62516602 106.48839844 17.67220703 106.47679687 18.75097656 106.46484375 C23.28092783 106.60367155 27.55020065 107.47538158 31.9375 108.5625 C31.49071157 119.03851286 30.75793364 129.22419696 28.9375 139.5625 C25.29123375 139.27610303 21.64559444 138.98231572 18 138.6875 C16.99775391 138.60886719 15.99550781 138.53023437 14.96289062 138.44921875 C8.198652 137.8979015 1.46432747 137.17783989 -5.27279663 136.36627197 C-14.21320059 135.29328965 -23.1691226 134.37063661 -32.125 133.4375 C-33.8782656 133.2540055 -35.63152086 133.07041221 -37.38476562 132.88671875 C-41.61055941 132.44417947 -45.83648865 132.00295662 -50.0625 131.5625 C-50.30116884 123.483142 -49.55346667 115.62645897 -48.63671875 107.60546875 C-48.4864553 106.25439505 -48.33671255 104.90326335 -48.18745422 103.55207825 C-47.79385562 100.00026105 -47.39395017 96.44918391 -46.99243164 92.89825439 C-46.51811044 88.69516195 -46.05009382 84.49136437 -45.5824604 80.28752327 C-45.19656967 76.81862106 -44.80875123 73.34996407 -44.41622925 69.88180542 C-43.65185264 63.09732759 -42.93088449 56.3127348 -42.30322266 49.51416016 C-42.18098831 48.22512283 -42.05875397 46.93608551 -41.93281555 45.60798645 C-41.70833693 43.21162414 -41.49412447 40.81426402 -41.2931366 38.41581726 C-39.88791221 23.57834719 -36.46328332 10.41142413 -24.67578125 0.65625 C-18.53461408 -3.50725316 -6.70850497 -2.52285657 0 0 Z " fill="#A085BD" transform="translate(70.0625,687.4375)"/>
<path d="M0 0 C6.79359338 4.06103515 13.59446224 9.77148009 16.12109375 17.5 C18.35656922 30.600926 12.52718511 40.51034006 5.23876953 50.91259766 C-0.8413721 59.39933771 -7.23467187 67.65574915 -13.59912109 75.9296875 C-17.01686293 80.39395717 -20.37885986 84.89978885 -23.73803711 89.40820312 C-24.4071814 90.30442383 -24.4071814 90.30442383 -25.08984375 91.21875 C-25.50298828 91.775625 -25.91613281 92.3325 -26.34179688 92.90625 C-27.48198898 94.38942672 -28.70622049 95.80686965 -29.93359375 97.21875 C-30.4646875 97.96125 -30.99578125 98.70375 -31.54296875 99.46875 C-30.4629685 102.70875075 -30.04513013 103.1023858 -27.3828125 104.94921875 C-26.75439453 105.39072266 -26.12597656 105.83222656 -25.47851562 106.28710938 C-24.81916016 106.73892578 -24.15980469 107.19074219 -23.48046875 107.65625 C-22.81724609 108.11966797 -22.15402344 108.58308594 -21.47070312 109.06054688 C-19.8328937 110.20347863 -18.18853978 111.3370218 -16.54296875 112.46875 C-18.87222276 117.44507619 -22.18177767 121.67776624 -25.41796875 126.09375 C-26.04316406 126.96515625 -26.66835937 127.8365625 -27.3125 128.734375 C-27.92222656 129.56710937 -28.53195313 130.39984375 -29.16015625 131.2578125 C-29.71300293 132.01787598 -30.26584961 132.77793945 -30.83544922 133.56103516 C-32.61589208 135.55022311 -34.0939539 136.45986018 -36.54296875 137.46875 C-47.64290558 129.17310265 -58.70820318 120.83560316 -69.7109375 112.41137695 C-76.62337626 107.13312888 -83.6168601 101.97126094 -90.67993164 96.89624023 C-91.42235107 96.35684814 -92.16477051 95.81745605 -92.9296875 95.26171875 C-93.58155029 94.7927417 -94.23341309 94.32376465 -94.9050293 93.84057617 C-96.54296875 92.46875 -96.54296875 92.46875 -98.54296875 89.46875 C-90.24969114 78.13516695 -81.85787325 66.88904905 -73.29833984 55.75537109 C-70.01604424 51.47971316 -66.74833838 47.19293741 -63.48046875 42.90625 C-62.8037915 42.01977783 -62.12711426 41.13330566 -61.42993164 40.2199707 C-57.78839883 35.44279729 -54.18120454 30.64322015 -50.61108398 25.8125 C-38.31024144 9.21723326 -22.9172904 -10.36646416 0 0 Z " fill="#9F85BD" transform="translate(214.54296875,360.53125)"/>
<path d="M0 0 C7.97416846 4.82128651 13.15985898 11.89614654 17.5625 19.9375 C18.0663623 20.83855469 18.57022461 21.73960938 19.08935547 22.66796875 C24.61312957 32.69811483 29.50591781 43.03026085 34.35449219 53.39892578 C35.81397514 56.50313752 37.29713409 59.5948588 38.7890625 62.68359375 C39.25683105 63.65425781 39.72459961 64.62492187 40.20654297 65.625 C41.09153218 67.46062761 41.97848756 69.29530898 42.86767578 71.12890625 C43.25681152 71.94101563 43.64594727 72.753125 44.046875 73.58984375 C44.38944336 74.30003662 44.73201172 75.01022949 45.08496094 75.74194336 C45.8125 77.5 45.8125 77.5 45.8125 79.5 C46.31177002 79.25765625 46.81104004 79.0153125 47.32543945 78.765625 C49.58909084 77.67103128 51.85694564 76.58543911 54.125 75.5 C54.91068359 75.1184375 55.69636719 74.736875 56.50585938 74.34375 C57.26318359 73.9828125 58.02050781 73.621875 58.80078125 73.25 C59.49727783 72.91484375 60.19377441 72.5796875 60.91137695 72.234375 C62.8125 71.5 62.8125 71.5 65.8125 71.5 C67.6689979 75.16362085 69.52026879 78.8298296 71.36669922 82.49853516 C71.99579431 83.74665722 72.62632241 84.99405805 73.25830078 86.24072266 C74.16553597 88.03098111 75.06722596 89.82404628 75.96875 91.6171875 C76.78569336 93.23536377 76.78569336 93.23536377 77.61914062 94.88623047 C78.8125 97.5 78.8125 97.5 78.8125 99.5 C77.60364136 100.08563721 77.60364136 100.08563721 76.37036133 100.68310547 C74.57263521 101.55412568 72.77492082 102.42517014 70.97737122 103.29655457 C67.38922912 105.03593599 63.80042527 106.77392808 60.21044922 108.50952148 C52.81729762 112.08647421 45.43290714 115.67921724 38.07347107 119.32513428 C34.68743942 121.00209162 31.29795063 122.67199701 27.90829468 124.34161377 C26.26104588 125.15556379 24.61555086 125.97307273 22.97183228 126.79412842 C20.66520539 127.94590845 18.35291348 129.08547575 16.0390625 130.22265625 C15.34988235 130.5707988 14.66070221 130.91894135 13.95063782 131.27763367 C9.15400459 133.61383486 9.15400459 133.61383486 5.8125 132.5 C4.35229492 130.07128906 4.35229492 130.07128906 2.79296875 126.765625 C2.35611252 125.85224365 2.35611252 125.85224365 1.91043091 124.92041016 C0.93096671 122.86790096 -0.03427913 120.80900694 -1 118.75 C-2.05237463 116.53441497 -3.10839133 114.32059005 -4.16468811 112.10687256 C-4.92651416 110.5099606 -5.68716996 108.91248992 -6.44676208 107.31451416 C-9.56460862 100.76632604 -12.75226641 94.25409778 -15.9609375 87.75 C-16.45101791 86.75506531 -16.94109833 85.76013062 -17.44602966 84.73504639 C-19.4009757 80.7664342 -21.35591158 76.79784787 -23.31973267 72.83361816 C-42.72263667 33.64054668 -42.72263667 33.64054668 -38.60546875 17.171875 C-34.89140942 8.55661409 -26.4254309 2.81582464 -18.01953125 -0.65234375 C-11.89877491 -2.48434944 -5.91209278 -2.57499353 0 0 Z " fill="#9F85BD" transform="translate(126.1875,1052.5)"/>
<path d="M0 0 C1.11665039 0.00483398 1.11665039 0.00483398 2.25585938 0.00976562 C3.38411133 0.02233398 3.38411133 0.02233398 4.53515625 0.03515625 C5.31439453 0.03966797 6.09363281 0.04417969 6.89648438 0.04882812 C8.79690893 0.06048717 10.69729331 0.07841748 12.59765625 0.09765625 C13.7368113 2.37596635 13.76444316 3.7619934 13.84375 6.296875 C13.89112305 7.59842529 13.89112305 7.59842529 13.93945312 8.92626953 C13.98682617 10.34141846 13.98682617 10.34141846 14.03515625 11.78515625 C14.37918309 20.64676281 14.97939141 29.4506563 15.84936523 38.27612305 C16.41840814 44.25918681 16.75930338 50.2322323 17.03125 56.234375 C17.63939263 69.37886654 18.81671771 82.47409896 19.94360352 95.58227539 C20.21808173 98.78897263 20.48807998 101.99602564 20.7578125 105.203125 C20.84217056 106.16574753 20.92652863 107.12837006 21.01344299 108.12016296 C21.49035967 113.80294878 21.6760387 119.39469496 21.59765625 125.09765625 C15.9559812 125.88947029 10.45223755 126.16451995 4.7578125 126.12890625 C3.72146667 126.12552246 3.72146667 126.12552246 2.66418457 126.12207031 C0.97533229 126.11622906 -0.71350869 126.10726328 -2.40234375 126.09765625 C-5.53345163 92.27108716 -5.53345163 92.27108716 -6.05615234 79.11132812 C-6.31970034 72.83433718 -6.87478042 66.60161484 -7.46484375 60.34765625 C-8.31922406 51.22510407 -8.64166567 42.25836737 -8.40234375 33.09765625 C-11.70234375 33.09765625 -15.00234375 33.09765625 -18.40234375 33.09765625 C-18.28173584 34.46470703 -18.28173584 34.46470703 -18.15869141 35.859375 C-16.00281 60.58588931 -14.49542488 85.30218029 -13.40234375 110.09765625 C-19.83734375 110.59265625 -19.83734375 110.59265625 -26.40234375 111.09765625 C-27.92248237 92.50021575 -29.11039447 73.8973698 -30.16455078 55.26904297 C-30.56508044 48.21121528 -30.98491207 41.15450055 -31.40234375 34.09765625 C-35.85734375 34.59265625 -35.85734375 34.59265625 -40.40234375 35.09765625 C-38.96398536 60.37298934 -37.51626553 85.63764313 -35.31713867 110.86010742 C-35.25553558 111.57573853 -35.1939325 112.29136963 -35.13046265 113.02868652 C-34.9668607 114.91938563 -34.79870241 116.80968901 -34.63012695 118.69995117 C-34.39706229 122.17643663 -34.3631755 125.61446 -34.40234375 129.09765625 C-36.86355216 130.32826046 -38.66011241 130.30342855 -41.41015625 130.4140625 C-42.88935547 130.4769043 -42.88935547 130.4769043 -44.3984375 130.54101562 C-45.43097656 130.58033203 -46.46351562 130.61964844 -47.52734375 130.66015625 C-49.08775391 130.72493164 -49.08775391 130.72493164 -50.6796875 130.79101562 C-53.25376903 130.89728505 -55.82794883 130.99932208 -58.40234375 131.09765625 C-59.95528085 116.72472779 -60.92606167 102.34835465 -61.70458984 87.91650391 C-62.11753565 79.76567187 -62.11753565 79.76567187 -62.8984375 71.64453125 C-63.8673586 63.74655555 -64.09363074 55.75096323 -64.52734375 47.80859375 C-64.65034566 45.57149654 -64.77545093 43.33453604 -64.90234375 41.09765625 C-64.96319908 40.02335609 -64.96319908 40.02335609 -65.02528381 38.92735291 C-65.23870208 35.32331024 -65.51628713 31.74686536 -65.9609375 28.1640625 C-66.54091363 23.45274956 -66.51265645 18.77596909 -66.46484375 14.03515625 C-66.46033203 13.16955078 -66.45582031 12.30394531 -66.45117188 11.41210938 C-66.43954288 9.30726086 -66.42161448 7.20244867 -66.40234375 5.09765625 C-60.43624474 4.13364719 -54.49525771 3.72742705 -48.46484375 3.37890625 C-47.42593994 3.31610474 -46.38703613 3.25330322 -45.31665039 3.18859863 C-40.89592013 2.92145543 -36.47480226 2.66099041 -32.05371094 2.39990234 C-28.81561215 2.20771474 -25.57773007 2.01213579 -22.33984375 1.81640625 C-21.34799072 1.75908325 -20.3561377 1.70176025 -19.33422852 1.6427002 C-12.88207117 1.25222302 -6.4495891 -0.04999681 0 0 Z " fill="#A085BE" transform="translate(1393.40234375,669.90234375)"/>
<path d="M0 0 C0.21092285 1.24571777 0.4218457 2.49143555 0.63916016 3.77490234 C5.80712454 34.30663336 5.80712454 34.30663336 11.125 64.8125 C11.24266724 65.4789856 11.36033447 66.14547119 11.48156738 66.83215332 C12.72692098 73.88544934 13.98574115 80.93606979 15.26992798 87.98240662 C15.8388492 91.10922894 16.40257806 94.23697701 16.96575928 97.36483765 C17.23450264 98.84905854 17.50578502 100.33282239 17.77984619 101.81607056 C20.47987402 116.43069016 20.47987402 116.43069016 20 123 C18.51197138 124.48802862 17.03416668 124.42814546 14.96875 124.76855469 C14.10774689 124.91266785 13.24674377 125.05678101 12.35964966 125.20526123 C11.41596527 125.35924377 10.47228088 125.51322632 9.5 125.671875 C7.48811331 126.00778149 5.47623201 126.34372024 3.46435547 126.6796875 C1.87853668 126.94217285 1.87853668 126.94217285 0.26068115 127.20996094 C-22.96417635 131.05611092 -22.96417635 131.05611092 -46.0546875 135.62792969 C-47.36179687 135.90491699 -47.36179687 135.90491699 -48.6953125 136.1875 C-49.41734863 136.34605469 -50.13938477 136.50460937 -50.88330078 136.66796875 C-53.28138508 137.04413884 -55.57587883 137.02124641 -58 137 C-58.10529526 136.39693024 -58.21059052 135.79386047 -58.31907654 135.17251587 C-64.15720841 101.74306297 -70.06100153 68.32691225 -76.10546875 34.93408203 C-76.24919922 34.13689758 -76.39292969 33.33971313 -76.54101562 32.51837158 C-76.87261605 30.69893472 -77.21066687 28.88066943 -77.55273438 27.06317139 C-77.73513672 26.08696838 -77.91753906 25.11076538 -78.10546875 24.10498047 C-78.27328857 23.2171286 -78.4411084 22.32927673 -78.61401367 21.41452026 C-79.0665112 18.58394217 -79.15465337 15.86108738 -79 13 C-75.91808296 12.32667007 -72.8342592 11.66251141 -69.75 11 C-68.87730469 10.80921875 -68.00460938 10.6184375 -67.10546875 10.421875 C-66.26113281 10.24140625 -65.41679688 10.0609375 -64.546875 9.875 C-63.77182617 9.70742188 -62.99677734 9.53984375 -62.19824219 9.3671875 C-60 9 -60 9 -56 9 C-53.98210043 18.12285641 -52.18715225 27.24501589 -50.625 36.45703125 C-50.41439941 37.68427414 -50.20379883 38.91151703 -49.98681641 40.1759491 C-49.32182188 44.05433924 -48.66076913 47.93338797 -48 51.8125 C-47.3398976 55.67172773 -46.67897666 59.53081443 -46.01782227 63.38986206 C-45.59304504 65.87094908 -45.16904002 68.35216844 -44.74584961 70.83352661 C-43.85527296 76.04915576 -42.95941745 81.26322097 -42.01953125 86.47021484 C-41.87660645 87.2634465 -41.73368164 88.05667816 -41.58642578 88.87394714 C-41.22111372 90.88882259 -40.85103241 92.90283183 -40.48046875 94.91674805 C-40 98 -40 98 -40 102 C-39.01 101.67 -38.02 101.34 -37 101 C-34.66700175 100.96045766 -32.33291811 100.95598268 -30 101 C-30.18062988 100.02691895 -30.36125977 99.05383789 -30.54736328 98.05126953 C-33.75471774 80.75996204 -36.95132485 63.46624976 -40.04119873 46.15350342 C-40.30422518 44.68273471 -40.56873837 43.21223108 -40.83477783 41.74200439 C-41.2052848 39.69201408 -41.57019413 37.64110424 -41.93359375 35.58984375 C-42.14040771 34.43347412 -42.34722168 33.27710449 -42.56030273 32.08569336 C-43 29 -43 29 -43 24 C-39.04 23.34 -35.08 22.68 -31 22 C-29.56780485 28.28032388 -28.30103771 34.56707406 -27.16015625 40.90625 C-26.99253281 41.829823 -26.82490936 42.753396 -26.65220642 43.70495605 C-26.12064679 46.63633996 -25.59157624 49.56816698 -25.0625 52.5 C-24.71174237 54.43492373 -24.36083205 56.36981978 -24.00976562 58.3046875 C-23.32472405 62.08270081 -22.64350928 65.86137375 -21.96533203 69.640625 C-21.34613483 73.0904712 -20.71681996 76.53817878 -20.07763672 79.984375 C-19.8003986 81.49998955 -19.52321428 83.01561394 -19.24609375 84.53125 C-19.05491722 85.54209656 -19.05491722 85.54209656 -18.85987854 86.57336426 C-18.16125431 90.43089002 -17.87954687 94.08206364 -18 98 C-13.05 97.505 -13.05 97.505 -8 97 C-9.35155375 89.29120624 -10.70628894 81.58297569 -12.0625 73.875 C-12.26430878 72.7270697 -12.46611755 71.5791394 -12.67404175 70.39642334 C-14.79058129 58.3654011 -16.91813135 46.33720779 -19.15625 34.328125 C-19.40247353 33.00538071 -19.40247353 33.00538071 -19.65367126 31.65591431 C-20.41782547 27.55815824 -21.18827243 23.46170226 -21.96704102 19.36669922 C-22.23983664 17.91375398 -22.51254705 16.46079273 -22.78515625 15.0078125 C-23.02113525 13.76660645 -23.25711426 12.52540039 -23.50024414 11.24658203 C-23.93473901 8.4239573 -24.10482281 5.84673123 -24 3 C-20.56489764 2.30013302 -17.12663476 1.61725071 -13.6875 0.9375 C-12.71103516 0.73833984 -11.73457031 0.53917969 -10.72851562 0.33398438 C-9.32182617 0.05844727 -9.32182617 0.05844727 -7.88671875 -0.22265625 C-6.59060669 -0.48187866 -6.59060669 -0.48187866 -5.26831055 -0.74633789 C-3 -1 -3 -1 0 0 Z " fill="#A085BD" transform="translate(108,871)"/>
<path d="M0 0 C5.13679226 1.63121017 9.04156103 4.76460713 13.3125 7.9375 C14.93512166 9.12647019 16.55883958 10.31394559 18.18359375 11.5 C18.99554199 12.09296875 19.80749023 12.6859375 20.64404297 13.296875 C24.01582433 15.73434099 27.43759202 18.09387252 30.875 20.4375 C36.86034413 24.52457723 42.81515908 28.65237721 48.75 32.8125 C49.59030762 33.401521 50.43061523 33.99054199 51.29638672 34.59741211 C53.00956009 35.79865703 54.72261286 37.00007396 56.43554688 38.20166016 C60.62173131 41.13724989 64.81103396 44.06838164 69 47 C70.21961426 47.85392334 70.21961426 47.85392334 71.46386719 48.72509766 C75.82859597 51.78109706 80.19466256 54.8351638 84.5625 57.88671875 C85.47257812 58.52287109 86.38265625 59.15902344 87.3203125 59.81445312 C89.06471744 61.03375658 90.80949019 62.25253406 92.5546875 63.47070312 C93.34101562 64.02048828 94.12734375 64.57027344 94.9375 65.13671875 C95.62714844 65.61842529 96.31679687 66.10013184 97.02734375 66.59643555 C99.04419535 68.03144543 101.02610048 69.50660371 103 71 C101.37885498 75.79821659 98.70723241 79.6672859 95.875 83.8125 C95.17310547 84.85180664 95.17310547 84.85180664 94.45703125 85.91210938 C93.30887563 87.61091105 92.15500633 89.30584864 91 91 C85.86320774 89.36878983 81.95843897 86.23539287 77.6875 83.0625 C76.06487834 81.87352981 74.44116042 80.68605441 72.81640625 79.5 C72.00445801 78.90703125 71.19250977 78.3140625 70.35595703 77.703125 C66.98417883 75.2656613 63.56247097 72.90603091 60.125 70.5625 C54.1145171 66.46040565 48.14238256 62.30741848 42.1875 58.125 C32.51385458 51.33500788 22.76999173 44.65041531 13 38 C10.87961365 40.61514317 8.86908256 43.19637616 7 46 C7.65355469 46.20753906 8.30710937 46.41507813 8.98046875 46.62890625 C13.17153129 48.53196311 16.62814892 51.20038496 20.3125 53.9375 C21.93512166 55.12647019 23.55883958 56.31394559 25.18359375 57.5 C25.99554199 58.09296875 26.80749023 58.6859375 27.64404297 59.296875 C31.01583314 61.73434736 34.43777207 64.09359607 37.875 66.4375 C39.16938896 67.32274397 40.46365677 68.2081651 41.7578125 69.09375 C42.42844727 69.55265625 43.09908203 70.0115625 43.79003906 70.484375 C48.12024554 73.45409681 52.4380322 76.44137083 56.75 79.4375 C57.60835449 80.02909912 58.46670898 80.62069824 59.35107422 81.23022461 C60.15818848 81.79233643 60.96530273 82.35444824 61.796875 82.93359375 C62.51198242 83.42915771 63.22708984 83.92472168 63.96386719 84.43530273 C66.17092577 86.13135051 68.07338182 87.99459516 70 90 C68.02 92.97 66.04 95.94 64 99 C60.36250917 98.09062729 58.86481254 97.42116119 55.9375 95.33203125 C55.15109131 94.77572021 54.36468262 94.21940918 53.55444336 93.64624023 C52.71147705 93.04110596 51.86851074 92.43597168 51 91.8125 C49.18888963 90.52852233 47.37768922 89.24467167 45.56640625 87.9609375 C44.64102051 87.3019043 43.71563477 86.64287109 42.76220703 85.96386719 C36.04714657 81.18960995 29.28643253 76.48016278 22.52734375 71.76855469 C19.88632075 69.92045088 17.25576707 68.05797934 14.625 66.1953125 C12.89616793 64.98389735 11.16701247 63.77294356 9.4375 62.5625 C8.23178345 61.70096313 8.23178345 61.70096313 7.00170898 60.82202148 C6.25735596 60.30454346 5.51300293 59.78706543 4.74609375 59.25390625 C4.09310303 58.79314697 3.4401123 58.3323877 2.76733398 57.85766602 C0.83644485 56.66635938 0.83644485 56.66635938 -2 58 C-3.70855022 61.00007271 -3.70855022 61.00007271 -5 64 C-4.29375488 64.48073975 -4.29375488 64.48073975 -3.57324219 64.97119141 C8.16904131 72.97009151 19.84374349 81.0596165 31.47070312 89.22509766 C34.86417374 91.60642308 38.2618834 93.98166431 41.65942383 96.35717773 C51.45946667 103.21010967 61.23668572 110.09485804 71 117 C70.38387674 120.15111795 69.33481347 122.26992103 67.49609375 124.890625 C67.00302734 125.59960938 66.50996094 126.30859375 66.00195312 127.0390625 C65.22754883 128.13347656 65.22754883 128.13347656 64.4375 129.25 C63.91736328 129.99507812 63.39722656 130.74015625 62.86132812 131.5078125 C61.57950615 133.3423467 60.29228766 135.17283032 59 137 C54.18778328 135.40519985 50.49651937 132.69298994 46.4375 129.75 C44.91181879 128.65835022 43.3857617 127.56722562 41.859375 126.4765625 C41.06337891 125.90583008 40.26738281 125.33509766 39.44726562 124.74707031 C35.38090173 121.84414733 31.2836797 118.98561995 27.1875 116.125 C25.49343426 114.94018326 23.79942426 113.75528683 22.10546875 112.5703125 C21.26161621 111.98024414 20.41776367 111.39017578 19.54833984 110.78222656 C15.3645694 107.85623267 11.18235476 104.9280169 7 102 C5.33334098 100.83332241 3.66667431 99.66665575 2 98.5 C-1.33333333 96.16666667 -4.66666667 93.83333333 -8 91.5 C-8.8264502 90.92161377 -9.65290039 90.34322754 -10.50439453 89.74731445 C-12.15690318 88.59029974 -13.80892842 87.43259426 -15.46044922 86.27416992 C-19.83984547 83.20374291 -24.22906683 80.14870402 -28.6328125 77.11328125 C-29.55191406 76.47712891 -30.47101562 75.84097656 -31.41796875 75.18554688 C-33.18575516 73.96238153 -34.95647034 72.74343522 -36.73046875 71.52929688 C-37.52324219 70.97951172 -38.31601562 70.42972656 -39.1328125 69.86328125 C-40.18299561 69.14072144 -40.18299561 69.14072144 -41.25439453 68.40356445 C-43 67 -43 67 -45 64 C-44.29617188 63.00484375 -43.59234375 62.0096875 -42.8671875 60.984375 C-34.87721646 49.68011676 -26.9323757 38.34472172 -19 27 C-16.4795906 23.3955366 -13.95867728 19.79142632 -11.4375 16.1875 C-10.86596191 15.36983154 -10.29442383 14.55216309 -9.70556641 13.7097168 C-6.49565112 9.12133656 -3.26281444 4.55092741 0 0 Z " fill="#A085BD" transform="translate(1053,190)"/>
<path d="M0 0 C3.15173867 1.35158831 4.81408764 2.69121836 6.796875 5.4765625 C7.28027344 6.146875 7.76367188 6.8171875 8.26171875 7.5078125 C8.99841797 8.55582031 8.99841797 8.55582031 9.75 9.625 C10.25660156 10.33140625 10.76320313 11.0378125 11.28515625 11.765625 C12.53096207 13.505052 13.7664963 15.25182752 15 17 C13.56260763 20.46089672 11.86180917 22.16535462 8.87890625 24.3984375 C7.61397339 25.35387451 7.61397339 25.35387451 6.32348633 26.32861328 C5.41236084 27.0039209 4.50123535 27.67922852 3.5625 28.375 C2.62108154 29.08253418 1.67966309 29.79006836 0.7097168 30.51904297 C-6.1674136 35.67559385 -13.09489947 40.76449059 -20.03173828 45.84033203 C-26.29852186 50.44051542 -32.42855651 55.20133603 -38.54321289 60.00097656 C-45.21332493 65.21556131 -52.05761394 70.15595571 -59 75 C-58.34 75.94875 -57.68 76.8975 -57 77.875 C-55 81 -55 81 -55 83 C-46.58382332 77.74888121 -38.84590199 71.58352505 -30.99951172 65.53515625 C-27.50992658 62.85597293 -23.97969455 60.23171353 -20.453125 57.6015625 C-17.52986907 55.41002839 -14.63178866 53.18650189 -11.734375 50.9609375 C-10.32043457 49.87679565 -10.32043457 49.87679565 -8.87792969 48.77075195 C-6.98582772 47.31893126 -5.09578904 45.86441688 -3.20800781 44.40698242 C-1.89848145 43.40308472 -1.89848145 43.40308472 -0.5625 42.37890625 C0.21996094 41.7763501 1.00242187 41.17379395 1.80859375 40.55297852 C4 39 4 39 8 37 C10.31 39.97 12.62 42.94 15 46 C11.33780187 49.79250106 7.5024947 53.16164024 3.375 56.4375 C2.7267627 56.9540918 2.07852539 57.47068359 1.41064453 58.00292969 C-4.4510171 62.63631495 -10.45340337 67.06777167 -16.48608398 71.47485352 C-26.09941132 78.50636575 -35.54766561 85.75429825 -45 93 C-43.79618552 95.49361571 -42.54571278 97.68143083 -41 100 C-38.17250036 98.66558629 -35.70389432 97.16230649 -33.19140625 95.3046875 C-32.45510986 94.76183105 -31.71881348 94.21897461 -30.96020508 93.65966797 C-29.77334106 92.77625732 -29.77334106 92.77625732 -28.5625 91.875 C-27.31472778 90.95098389 -27.31472778 90.95098389 -26.04174805 90.00830078 C-17.97713479 84.01864766 -9.99304865 77.9241029 -2.01171875 71.82421875 C9.88442376 62.73622715 21.90827009 53.82557298 34 45 C38.741196 47.05280389 40.85376596 50.34759846 43.8125 54.4375 C44.32748047 55.11876953 44.84246094 55.80003906 45.37304688 56.50195312 C45.85451172 57.16001953 46.33597656 57.81808594 46.83203125 58.49609375 C47.49295776 59.39606079 47.49295776 59.39606079 48.16723633 60.31420898 C49 62 49 62 48 65 C46.38378906 66.46362305 46.38378906 66.46362305 44.265625 68.01171875 C43.47470459 68.59638916 42.68378418 69.18105957 41.86889648 69.78344727 C41.00466064 70.41178467 40.1404248 71.04012207 39.25 71.6875 C37.41209771 73.04337298 35.57487953 74.40017369 33.73828125 75.7578125 C32.78775879 76.4580957 31.83723633 77.15837891 30.85791016 77.87988281 C26.34750035 81.2258933 21.89434363 84.64566992 17.4375 88.0625 C10.67367943 93.23457482 3.86600178 98.33938071 -3 103.375 C-9.18991002 107.91477044 -15.32187685 112.51001601 -21.390625 117.2109375 C-26.2825519 120.9994439 -31.20512182 124.74791708 -36.125 128.5 C-37.05103027 129.20753418 -37.97706055 129.91506836 -38.93115234 130.64404297 C-40.23753662 131.64008545 -40.23753662 131.64008545 -41.5703125 132.65625 C-42.35164551 133.25244141 -43.13297852 133.84863281 -43.93798828 134.46289062 C-48.70478094 138.01625631 -48.70478094 138.01625631 -50.96411133 137.8918457 C-53.70640031 136.69055279 -54.79435023 135.12986423 -56.57421875 132.73046875 C-57.23679687 131.84810547 -57.899375 130.96574219 -58.58203125 130.05664062 C-59.27683594 129.10982422 -59.97164063 128.16300781 -60.6875 127.1875 C-61.409375 126.22134766 -62.13125 125.25519531 -62.875 124.25976562 C-64.92544912 121.5129027 -66.96365135 118.75732182 -69 116 C-70.49549359 113.99656257 -71.99763025 111.99829762 -73.5 110 C-74.16515625 109.10796875 -74.8303125 108.2159375 -75.515625 107.296875 C-77.62902874 104.47777818 -79.77475251 101.6841061 -81.921875 98.890625 C-82.98825195 97.50037109 -82.98825195 97.50037109 -84.07617188 96.08203125 C-85.49116573 94.23859811 -86.90899099 92.39733373 -88.33007812 90.55859375 C-92.19297896 85.52134085 -95.73353525 80.44410791 -99 75 C-89.8121412 67.80754908 -80.60144057 60.65350281 -71.24731445 53.67822266 C-65.69578803 49.53476583 -60.19004311 45.33321027 -54.6875 41.125 C-47.2483796 35.44049707 -39.75066116 29.84584482 -32.19775391 24.3137207 C-23.4024851 17.85616605 -14.74065701 11.22400607 -6.08032227 4.5871582 C-4.06166673 3.04704793 -2.03348841 1.52045366 0 0 Z " fill="#A085BD" transform="translate(337,222)"/>
<path d="M0 0 C4.34989794 3.5293128 7.1306432 7.30398398 9.5078125 12.35546875 C9.5078125 13.01546875 9.5078125 13.67546875 9.5078125 14.35546875 C5.59839676 15.81179084 1.68408604 17.25379929 -2.23535156 18.68286133 C-3.56751187 19.17083392 -4.89826489 19.66266658 -6.22753906 20.15844727 C-8.14029361 20.87108414 -10.05770633 21.56961209 -11.9765625 22.265625 C-13.70471191 22.90189819 -13.70471191 22.90189819 -15.46777344 23.55102539 C-19.77424802 24.69647532 -21.46717597 23.91743311 -25.28515625 21.82421875 C-36.54421122 16.66781842 -50.54716143 21.29685559 -61.4921875 25.35546875 C-82.46705707 32.45877472 -82.46705707 32.45877472 -97.4921875 47.35546875 C-98.32960239 52.28060379 -98.15711385 56.61927217 -96.3671875 61.29296875 C-92.83899658 65.17397876 -90.76175856 67.06060322 -85.515625 67.7421875 C-76.33101007 68.04281259 -68.15814305 66.22645686 -59.4921875 63.35546875 C-58.62932129 63.07106934 -57.76645508 62.78666992 -56.87744141 62.49365234 C-35.53106073 55.95687086 -35.53106073 55.95687086 -19.4921875 41.35546875 C-19.19054687 40.39382812 -18.88890625 39.4321875 -18.578125 38.44140625 C-15.22287634 33.47764887 -10.19486952 32.43342347 -4.6796875 30.54296875 C-3.05836914 29.95225586 -3.05836914 29.95225586 -1.40429688 29.34960938 C3.54928332 27.5767811 8.25890234 25.97953796 13.5078125 25.35546875 C15.74627634 27.59393259 14.93989299 32.8435421 14.95874023 35.92797852 C14.73930761 45.14516928 10.64786642 51.31248496 4.5078125 57.98046875 C-11.52845722 72.97438094 -33.1280554 80.36797726 -53.4921875 87.35546875 C-54.71035156 87.77957031 -55.92851562 88.20367187 -57.18359375 88.640625 C-73.66573254 94.06590973 -95.68544195 99.02124481 -111.9765625 90.8984375 C-119.43749777 86.32224273 -123.80229647 81.26839096 -127.4921875 73.35546875 C-127.80027344 72.7109375 -128.10835938 72.06640625 -128.42578125 71.40234375 C-132.2791881 62.92116121 -133.15835262 52.99850583 -129.9296875 44.16796875 C-119.19868979 20.84295289 -90.71582657 9.92269152 -68.19287109 1.49511719 C-63.68350699 -0.1001321 -59.11610521 -1.42275036 -54.4921875 -2.64453125 C-53.79883301 -2.83772949 -53.10547852 -3.03092773 -52.39111328 -3.22998047 C-35.1497568 -7.96874235 -15.70072481 -10.36050963 0 0 Z " fill="#A085BD" transform="translate(534.4921875,152.64453125)"/>
<path d="M0 0 C8.72883814 7.21077934 12.95740742 17.53786641 14.25634766 28.63208008 C14.41077709 31.95281585 14.42950037 35.23869138 14.375 38.5625 C14.36364014 39.76503418 14.35228027 40.96756836 14.34057617 42.20654297 C13.94440738 60.96998008 10.77440057 79.55813218 4.875 97.375 C4.64554688 98.07302734 4.41609375 98.77105469 4.1796875 99.49023438 C-1.08391272 115.17981197 -8.01544412 129.70538266 -22.79296875 138.24609375 C-27.0811976 140.32197003 -30.62102443 140.48917365 -35.375 140.4375 C-36.45265625 140.42847656 -37.5303125 140.41945313 -38.640625 140.41015625 C-39.46046875 140.39855469 -40.2803125 140.38695312 -41.125 140.375 C-40.42595548 129.71457112 -38.5117645 118.5352935 -35.125 108.375 C-33.48828125 107.5234375 -33.48828125 107.5234375 -31.4375 106.75 C-23.84743238 103.10405681 -21.19893814 96.10460687 -18.5 88.5 C-13.26189779 72.29964086 -6.76592521 49.63896096 -13.13671875 33.18359375 C-15.24004994 29.33441454 -18.08691348 27.72102884 -22.125 26.375 C-24.24150397 26.14204274 -24.24150397 26.14204274 -26.5 26.125 C-27.25023437 26.09921875 -28.00046875 26.0734375 -28.7734375 26.046875 C-32.62360607 26.58410782 -35.1984877 28.29824246 -37.71484375 31.22265625 C-48.54897908 49.02832214 -55.92721936 76.52432082 -51.5234375 97.19921875 C-50.44092644 100.59436709 -49.66810815 102.83189185 -47.125 105.375 C-46.5633975 114.6414412 -48.93115175 128.9873035 -53.125 137.375 C-60.42825421 137.00983729 -64.92887872 132.57112128 -69.875 127.625 C-82.1437075 109.90353361 -78.98110685 86.70843158 -75.390625 66.73828125 C-70.94745701 43.65143933 -64.76526418 12.89588046 -45.05078125 -2.21484375 C-30.25428228 -11.93825736 -14.60027882 -7.59214498 0 0 Z " fill="#A085BD" transform="translate(1395.125,858.625)"/>
<path d="M0 0 C14.27827896 10.37947706 26.61770809 24.06449249 36.875 38.375 C37.27364258 38.92349609 37.67228516 39.47199219 38.08300781 40.03710938 C50.8908369 57.72954372 61.47494823 75.84391339 58.875 98.375 C57.7124806 102.13691278 56.11971811 105.15543289 53.875 108.375 C52.823125 109.921875 52.823125 109.921875 51.75 111.5 C51.13125 112.11875 50.5125 112.7375 49.875 113.375 C48.885 113.375 47.895 113.375 46.875 113.375 C45.52807617 112.01733398 45.52807617 112.01733398 44.16796875 110.12109375 C43.4109668 109.0856543 43.4109668 109.0856543 42.63867188 108.02929688 C42.11853516 107.29775391 41.59839844 106.56621094 41.0625 105.8125 C40.03762642 104.39274484 39.01029147 102.97476314 37.98046875 101.55859375 C37.47443115 100.85323486 36.96839355 100.14787598 36.44702148 99.42114258 C34.90688681 97.41650386 33.24173872 95.66512474 31.484375 93.8515625 C29.03862251 91.04803136 28.88103993 90.44449388 28.53515625 86.46484375 C28.6510237 85.07908236 28.78586152 83.69480448 28.9375 82.3125 C29.79398409 65.56914728 17.58410466 52.70961688 7.0625 40.875 C5.67311598 39.36902432 4.278253 37.86806119 2.875 36.375 C2.029375 35.4675 1.18375 34.56 0.3125 33.625 C-6.10791217 27.69846569 -11.99807847 22.81339264 -21.1328125 23.0546875 C-25.25924834 23.71815365 -28.06081857 26.16756338 -30.75 29.21875 C-33.43587895 33.43069653 -32.98785015 37.58702759 -32.125 42.375 C-28.31773195 53.41753608 -21.2903528 63.27601831 -14.125 72.375 C-13.64482422 72.98682129 -13.16464844 73.59864258 -12.66992188 74.22900391 C-6.15803139 82.41980748 0.34873481 89.6118674 9.875 94.375 C10.56851562 94.35179687 11.26203125 94.32859375 11.9765625 94.3046875 C14.89224822 94.24149926 17.09354514 94.46702138 19.875 95.375 C22.26260279 97.72622027 23.90775098 100.21114629 25.71484375 103.03125 C28.21727334 106.90481189 30.9992229 110.46306008 33.875 114.0625 C34.83358617 115.27453966 35.79194079 116.48676251 36.75 117.69921875 C37.45125 118.58222656 38.1525 119.46523438 38.875 120.375 C35.06152744 124.61219174 32.11587557 126.17981061 26.421875 126.67578125 C6.99966179 126.73572635 -5.32168718 117.26479112 -19.125 104.375 C-21.65837032 101.84162968 -23.89577266 99.1771821 -26.125 96.375 C-26.98700168 95.34528165 -27.85041698 94.31674588 -28.71484375 93.2890625 C-46.18043653 72.28282973 -63.84352547 48.78795438 -62.125 20.375 C-60.89918281 11.20801927 -54.50066365 4.9741184 -47.59375 -0.70703125 C-31.76503776 -12.30986815 -16.31237746 -10.34493811 0 0 Z " fill="#9F85BD" transform="translate(1224.125,326.625)"/>
<path d="M0 0 C-1.99197158 6.91533149 -4.19803432 13.70820956 -6.75 20.4375 C-7.059375 21.32115234 -7.36875 22.20480469 -7.6875 23.11523438 C-10.09336955 29.39245353 -10.09336955 29.39245353 -12.72290039 31.15454102 C-14.45051775 31.85307468 -16.22516303 32.43205217 -18 33 C-26.73819134 40.18561976 -33.02454708 58.144986 -35 69 C-35.19264208 71.72386942 -35.15192276 74.26539031 -35 77 C-33.35 77.33 -31.7 77.66 -30 78 C-23.87959864 70.05794928 -20.40623659 61.06464465 -16.625 51.875 C-0.42566752 12.61050398 -0.42566752 12.61050398 13 6 C19.0482888 4.99647226 24.85954356 5.51774723 30.2109375 8.58984375 C34.33982027 11.84426881 37.34415319 16.03245956 39 21 C40.93959193 50.85699706 27.51618905 84.19805359 8.6875 107.25 C3.20732064 113.2621155 -4.42620383 119.5394202 -12.7890625 120.23046875 C-14.19285156 120.20919922 -14.19285156 120.20919922 -15.625 120.1875 C-16.56601563 120.18105469 -17.50703125 120.17460938 -18.4765625 120.16796875 C-21 120 -21 120 -24 119 C-23.0666041 112.43764918 -20.82449849 106.6542584 -18.4375 100.5 C-18.03208984 99.38496094 -17.62667969 98.26992188 -17.20898438 97.12109375 C-14.77042635 90.85478384 -12.68173304 86.78499409 -6.85180664 83.23925781 C1.57551638 77.59956214 5.25813039 63.98215197 9 55 C9.46148437 53.90171875 9.92296875 52.8034375 10.3984375 51.671875 C12.55619538 46.19331245 13.4443271 41.88733404 13 36 C11.35 35.67 9.7 35.34 8 35 C3.89560349 40.81542326 0.56585482 46.59403134 -2.25 53.125 C-2.62423096 53.97175293 -2.99846191 54.81850586 -3.3840332 55.69091797 C-5.48773215 60.46648398 -7.54173172 65.26288393 -9.58984375 70.0625 C-10.02329102 71.07296387 -10.45673828 72.08342773 -10.90332031 73.12451172 C-11.73415318 75.0657543 -12.55818952 77.00992588 -13.37402344 78.95751953 C-18.13545834 90.10930127 -24.26925113 103.30829279 -36.03125 108.375 C-40.79678781 109.88786914 -44.57498818 109.40451182 -49.0625 107.4375 C-54.20588866 104.61113303 -57.81080134 100.75976103 -60.1328125 95.37109375 C-65.72437351 73.63453 -56.46256503 51.2159972 -47 32 C-46.54923096 31.071875 -46.54923096 31.071875 -46.08935547 30.125 C-39.83289417 17.38152104 -31.11016251 4.18312563 -17.4375 -1.34765625 C-11.36741962 -2.97218097 -5.55569454 -2.94803958 0 0 Z " fill="#A085BD" transform="translate(116,522)"/>
<path d="M0 0 C1.39379883 2.25317383 1.39379883 2.25317383 2.45703125 5.20703125 C2.84697266 6.26857422 3.23691406 7.33011719 3.63867188 8.42382812 C4.02603516 9.54208984 4.41339844 10.66035156 4.8125 11.8125 C5.21919922 12.91916016 5.62589844 14.02582031 6.04492188 15.16601562 C9 23.37566964 9 23.37566964 9 28 C-2.385 32.455 -2.385 32.455 -14 37 C-14 40.95138096 -13.44996813 42.91385619 -12.04394531 46.52783203 C-11.61639954 47.63643585 -11.18885376 48.74503967 -10.74835205 49.88723755 C-10.04533966 51.67942215 -10.04533966 51.67942215 -9.328125 53.5078125 C-8.84389073 54.75587182 -8.36023704 56.00415653 -7.87713623 57.25265503 C-6.60232074 60.54238357 -5.31937545 63.82888356 -4.03479004 67.11480713 C-2.74203748 70.42611569 -1.45741522 73.74057397 -0.171875 77.0546875 C1.72351115 81.93663235 3.62194957 86.81737008 5.52636719 91.69580078 C5.94285522 92.76397034 6.35934326 93.83213989 6.78845215 94.93267822 C8.25114244 98.63582686 9.76805162 102.31558001 11.30792236 105.98727417 C12 108 12 108 12 111 C14.68857637 110.06550045 17.37584536 109.12749579 20.0625 108.1875 C20.81466797 107.92646484 21.56683594 107.66542969 22.34179688 107.39648438 C25.91300311 106.14424323 29.4158442 104.84705315 32.87109375 103.30078125 C36 102 36 102 39 102 C40.70549326 106.24299971 42.38623294 110.4953784 44.0625 114.75 C44.54783203 115.9565625 45.03316406 117.163125 45.53320312 118.40625 C45.98759766 119.56640625 46.44199219 120.7265625 46.91015625 121.921875 C47.33433838 122.99018555 47.75852051 124.05849609 48.19555664 125.15917969 C49.04182402 128.14769781 49.16273387 129.18766434 48 132 C46.25021362 133.10380554 46.25021362 133.10380554 43.93701172 133.96362305 C43.07034882 134.29464523 42.20368591 134.62566742 41.3107605 134.96672058 C40.36000641 135.31156998 39.40925232 135.65641937 38.4296875 136.01171875 C37.44243683 136.38424271 36.45518616 136.75676666 35.4380188 137.14057922 C32.25569999 138.33779376 29.06580705 139.51311913 25.875 140.6875 C22.77800785 141.84389492 19.68270384 143.0047279 16.58746338 144.165802 C14.52216564 144.93874619 12.45554771 145.70817187 10.38763428 146.47409058 C5.04735853 148.4562778 -0.26380038 150.4906947 -5.54589844 152.62353516 C-6.59711884 153.04592972 -7.64833923 153.46832428 -8.73141479 153.90351868 C-10.73671013 154.71327328 -12.7383354 155.53219427 -14.73562622 156.36149597 C-16.08054642 156.90342339 -16.08054642 156.90342339 -17.45263672 157.45629883 C-18.23694061 157.77931473 -19.02124451 158.10233063 -19.82931519 158.43513489 C-22.33272186 159.08658234 -23.62142307 158.99123153 -26 158 C-27.37207031 155.53149414 -27.37207031 155.53149414 -28.578125 152.28515625 C-29.01640625 151.12435547 -29.4546875 149.96355469 -29.90625 148.76757812 C-30.3496875 147.54490234 -30.793125 146.32222656 -31.25 145.0625 C-31.70890625 143.84369141 -32.1678125 142.62488281 -32.640625 141.36914062 C-36 132.35581752 -36 132.35581752 -36 130 C-32.23242503 128.49172203 -28.46043651 126.99481006 -24.6875 125.5 C-23.0797168 124.85611328 -23.0797168 124.85611328 -21.43945312 124.19921875 C-20.41142578 123.79316406 -19.38339844 123.38710938 -18.32421875 122.96875 C-17.37635498 122.59169922 -16.42849121 122.21464844 -15.4519043 121.82617188 C-13 121 -13 121 -10 121 C-15.11640444 105.97791901 -20.87228377 91.20191163 -26.61035156 76.40966797 C-27.89963378 73.08437366 -29.18600615 69.75795404 -30.47265625 66.43164062 C-32.97899553 59.95335066 -35.48844934 53.47627131 -38 47 C-39.56919362 47.46538782 -41.13795646 47.93222823 -42.70654297 48.3996582 C-43.58019501 48.65946976 -44.45384705 48.91928131 -45.35397339 49.18696594 C-49.31942321 50.40541391 -53.22127117 51.78609057 -57.125 53.1875 C-59.72375 54.115625 -62.3225 55.04375 -65 56 C-68.63 46.43 -72.26 36.86 -76 27 C-65.87537127 22.50016501 -65.87537127 22.50016501 -62.22485352 21.09643555 C-61.40271866 20.77897873 -60.5805838 20.46152191 -59.73353577 20.13444519 C-58.44424416 19.6405706 -58.44424416 19.6405706 -57.12890625 19.13671875 C-56.20770493 18.78164749 -55.2865036 18.42657623 -54.33738708 18.06074524 C-51.41325393 16.93416191 -48.48792444 15.8107254 -45.5625 14.6875 C-42.67971229 13.5782128 -39.79717701 12.46827492 -36.91488647 11.35769653 C-35.02372948 10.63005727 -33.13182693 9.9043526 -31.23916626 9.18063354 C-26.72476659 7.45172397 -22.22642536 5.69542112 -17.75341797 3.86181641 C-16.93284409 3.52954544 -16.1122702 3.19727448 -15.26683044 2.85493469 C-13.73725231 2.23365308 -12.21171558 1.60228577 -10.69129944 0.95890808 C-3.85883213 -1.79811282 -3.85883213 -1.79811282 0 0 Z " fill="#9F85BD" transform="translate(1338,474)"/>
<path d="M0 0 C186.78 0 373.56 0 566 0 C566 183.81 566 367.62 566 557 C563.2495358 557.9168214 561.34927672 558.18402834 558.49373859 558.31217855 C557.58615488 558.35353413 556.67857117 558.39488971 555.74348492 558.43749848 C554.7611282 558.47626873 553.77877149 558.51503899 552.76664639 558.55498409 C551.7388839 558.59712768 550.71112142 558.63927126 549.65221461 558.68269193 C538.67853238 559.09977682 527.71376171 559.13645667 516.73365784 559.12025452 C514.49178556 559.12069331 512.24991334 559.12157272 510.00804138 559.12284851 C503.90568592 559.12506831 497.80334835 559.12111007 491.70099516 559.11607273 C485.68978297 559.11212862 479.67857238 559.11299512 473.66735939 559.11368043 C461.46052383 559.11491586 449.25369369 559.11165691 437.04685974 559.10557556 C420.54161385 559.09736741 404.03637718 559.09547029 387.53112793 559.09460449 C347.87491752 559.08936325 308.21870866 559.07540205 268.5625 559.0625 C179.936875 559.041875 91.31125 559.02125 0 559 C0 374.53 0 190.06 0 0 Z M3 3 C3 185.49 3 367.98 3 556 C187.8 556 372.6 556 563 556 C563 373.51 563 191.02 563 3 C378.2 3 193.4 3 3 3 Z " fill="#F1EDF5" transform="translate(436,525)"/>
<path d="M0 0 C3.60528468 1.37404207 6.97060125 2.97292946 10.3671875 4.80078125 C11.40633301 5.35934814 12.44547852 5.91791504 13.51611328 6.4934082 C15.17876221 7.39385864 15.17876221 7.39385864 16.875 8.3125 C18.02597168 8.93406982 19.17694336 9.55563965 20.36279297 10.19604492 C30.78569535 15.83799443 41.10676153 21.65553123 51.40380859 27.5234375 C55.40723413 29.80035283 59.42187945 32.05718264 63.4375 34.3125 C64.44997803 34.88158081 64.44997803 34.88158081 65.48291016 35.4621582 C66.9884669 36.30835438 68.49420851 37.15422162 70 38 C68.35526763 44.18336092 65.07446913 49.39655866 61.875 54.875 C61.31167969 55.84953125 60.74835938 56.8240625 60.16796875 57.828125 C58.78349637 60.22161962 57.39406459 62.6120838 56 65 C51.62377295 64.39822427 48.43699716 62.78200314 44.60546875 60.62109375 C43.71714104 60.12380516 43.71714104 60.12380516 42.81086731 59.61647034 C40.9327502 58.56317461 39.06012505 57.50052337 37.1875 56.4375 C35.90985704 55.71877524 34.63186565 55.00066951 33.35351562 54.28320312 C30.23161189 52.52928251 27.11456024 50.76693532 24 49 C24.49289447 58.02709416 25.05474399 67.04494672 25.75390625 76.05859375 C25.81959808 76.90797516 25.88528992 77.75735657 25.95297241 78.63247681 C26.22371522 82.11839819 26.49629626 85.60416132 26.77319336 89.08959961 C27.16622915 94.05414152 27.53315063 99.01892182 27.85717773 103.98846436 C27.97652229 105.66933545 28.13575375 107.34731249 28.3046875 109.02392578 C28.81339985 116.44018292 25.53604476 121.72847115 21.875 128 C21.02035156 129.52367187 21.02035156 129.52367187 20.1484375 131.078125 C16.9375782 136.77010285 13.59407625 142.37634561 10.16845703 147.94140625 C8.86459237 150.08408913 8.86459237 150.08408913 8 153 C7.34 153 6.68 153 6 153 C5.94695457 151.87699745 5.94695457 151.87699745 5.89283752 150.73130798 C5.55798772 143.65486007 5.21994115 136.57857366 4.87835789 129.50244808 C4.70288384 125.86507528 4.52861994 122.22765313 4.35717773 118.59008789 C4.19149368 115.07566263 4.02255755 111.56140705 3.85142326 108.04724312 C3.75561634 106.06276537 3.66312498 104.07812845 3.57069397 102.0934906 C3.28794033 96.33941956 2.98067981 90.68054155 2 85 C-13.77989228 93.13347522 -29.45049885 101.43471582 -45 110 C-46.93868716 111.06531334 -48.87749029 112.13041565 -50.81640625 113.1953125 C-55.54597756 115.79378069 -60.27374074 118.39551296 -65 121 C-65.33 120.34 -65.66 119.68 -66 119 C-64.84765625 116.48486328 -64.84765625 116.48486328 -63.0625 113.3203125 C-62.74474609 112.75230927 -62.42699219 112.18430603 -62.09960938 111.59909058 C-61.07386696 109.77008113 -60.03702953 107.94762876 -59 106.125 C-57.99915925 104.3443274 -57.00045419 102.5624719 -56.00219727 100.78034973 C-55.32943372 99.59046579 -54.64879799 98.4050013 -53.96069336 97.22392273 C-52.34771225 94.45164726 -50.87156522 91.71042957 -49.5703125 88.77661133 C-44.62443671 78.2992079 -36.0359263 75.03170529 -26 70.4375 C-24.28444605 69.62111479 -22.5704199 68.80151157 -20.85791016 67.97875977 C-16.67724727 65.97845506 -12.48019939 64.01583109 -8.27697754 62.06347656 C-3.93520847 60.03562624 0.37337389 57.93964237 4.6875 55.85375977 C8.12845146 54.19477045 11.58057028 52.5604792 15.03759766 50.93530273 C17.03814676 49.98181883 19.02096527 48.99727177 21 48 C13.84893427 43.39650144 6.44218566 39.29329778 -1 35.1875 C-2.26443328 34.48782962 -3.52875707 33.78796132 -4.79296875 33.08789062 C-7.860721 31.38964496 -10.9299434 29.69407712 -14 28 C-13.30911691 24.39993892 -11.81369937 21.56286875 -10.05859375 18.359375 C-9.47529297 17.28945312 -8.89199219 16.21953125 -8.29101562 15.1171875 C-7.67935547 14.00601562 -7.06769531 12.89484375 -6.4375 11.75 C-5.82197266 10.62335938 -5.20644531 9.49671875 -4.57226562 8.3359375 C-3.05220595 5.55505313 -1.52798227 2.77653673 0 0 Z " fill="#A085BD" transform="translate(1298,1029)"/>
<path d="M0 0 C7.26746053 1.75019118 14.39945277 3.98665648 21.5 6.3125 C22.38461914 6.58392822 23.26923828 6.85535645 24.18066406 7.13500977 C25.4370166 7.55737915 25.4370166 7.55737915 26.71875 7.98828125 C27.47091797 8.23102783 28.22308594 8.47377441 28.99804688 8.72387695 C32.61634164 11.03031924 33.74721461 14.96508981 34.7336731 19.00367737 C34.90164398 20.05893112 35.06961487 21.11418488 35.24267578 22.20141602 C35.53780563 24.00842735 35.53780563 24.00842735 35.83889771 25.85194397 C36.03901459 27.13959152 36.23913147 28.42723907 36.4453125 29.75390625 C36.6619429 31.10113096 36.879477 32.44821063 37.09786987 33.79515076 C37.66834808 37.32803515 38.22716256 40.86266468 38.7833252 44.39782715 C39.35025266 47.98958301 39.92724112 51.57971871 40.50390625 55.16992188 C41.15251602 59.20839536 41.79944362 63.24708168 42.43899536 67.28700256 C42.62944427 68.48852463 42.81989319 69.69004669 43.01611328 70.92797852 C43.18249298 71.98243668 43.34887268 73.03689484 43.52029419 74.12330627 C43.96035356 76.76224872 44.45825261 79.38025985 45 82 C51.52979411 76.1923243 57.9442526 70.27213072 64.32397461 64.30078125 C69.18758566 59.75089238 74.08502054 55.24036165 79 50.74609375 C82.38314462 47.65205834 85.75510069 44.54594965 89.125 41.4375 C89.68203613 40.92429199 90.23907227 40.41108398 90.81298828 39.88232422 C92.90682446 37.95000325 94.98507094 36.01492906 97 34 C101.72472867 34.35997592 105.91910337 35.49381263 110.37109375 37.06640625 C111.52158203 37.46923828 112.67207031 37.87207031 113.85742188 38.28710938 C115.03884766 38.70798828 116.22027344 39.12886719 117.4375 39.5625 C118.64599609 39.98724609 119.85449219 40.41199219 121.09960938 40.84960938 C124.06848683 41.8939971 127.03513782 42.94427877 130 44 C128.68904505 46.95311939 127.3658972 48.82764609 124.91015625 50.91796875 C124.29648193 51.44527588 123.68280762 51.97258301 123.05053711 52.51586914 C122.39448486 53.06750732 121.73843262 53.61914551 121.0625 54.1875 C120.38517822 54.76556396 119.70785645 55.34362793 119.01000977 55.93920898 C114.32852045 59.92099362 109.58468618 63.82369395 104.80859375 67.69140625 C101.4970152 70.41344091 98.24686941 73.20139731 95 76 C90.01857223 80.29294322 84.98310892 84.5017585 79.859375 88.625 C77.67427014 90.43995048 75.55791046 92.2830631 73.453125 94.1875 C72.83888672 94.73599609 72.22464844 95.28449219 71.59179688 95.84960938 C70.39474766 96.92225687 69.20784783 98.00637876 68.03320312 99.10351562 C67.48083984 99.59529297 66.92847656 100.08707031 66.359375 100.59375 C65.87952148 101.03396484 65.39966797 101.47417969 64.90527344 101.92773438 C60.70066312 104.29403992 56.44570793 104.28390821 51.87231445 103.17407227 C50.36353477 102.74113753 48.86058247 102.28750885 47.36328125 101.81640625 C46.56141891 101.5643895 45.75955658 101.31237274 44.93339539 101.05271912 C43.24709197 100.51117677 41.56381483 99.96012896 39.88354492 99.40014648 C38.1733763 98.84297351 36.45351339 98.31470137 34.7253418 97.81616211 C20.51197266 93.71284543 20.51197266 93.71284543 17.1003418 87.59155273 C16.06277131 84.18719572 15.61904052 80.74933391 15.25967407 77.21633911 C14.82314438 73.49052302 13.92984877 69.8704319 13.10546875 66.21484375 C12.78621666 64.69474063 12.47051045 63.17388886 12.15820312 61.65234375 C11.92049194 60.49774658 11.92049194 60.49774658 11.67797852 59.31982422 C11.51612061 58.53365723 11.3542627 57.74749023 11.1875 56.9375 C9.17547315 47.22346906 7.14820573 37.5160591 4.92578125 27.84765625 C4.67987495 26.77595436 4.67987495 26.77595436 4.42900085 25.68260193 C3.6567909 22.32623225 2.87527399 18.97251224 2.08276367 15.62084961 C1.80795166 14.43628174 1.53313965 13.25171387 1.25 12.03125 C1.00765625 11.00580078 0.7653125 9.98035156 0.515625 8.92382812 C-0.01932389 5.89042476 -0.09154814 3.07372874 0 0 Z " fill="#A085BD" transform="translate(867,120)"/>
<path d="M0 0 C1.06309567 5.17317421 1.11693938 10.12369336 1.0625 15.375 C1.05798828 16.20644531 1.05347656 17.03789063 1.04882812 17.89453125 C1.03713164 19.92971897 1.01919935 21.96486923 1 24 C-5.85944201 24.95270028 -12.66312142 25.32258224 -19.578125 25.60546875 C-24.03011092 25.80348653 -28.35520168 26.18127801 -32.7734375 26.79492188 C-37.49925213 27.23019428 -42.2591836 27.07111225 -47 27 C-46.96241577 27.56883408 -46.92483154 28.13766815 -46.8861084 28.72373962 C-46.49329998 34.67765977 -46.10461719 40.63183935 -45.71826172 46.58618164 C-45.57379887 48.8043489 -45.42830625 51.02244936 -45.28173828 53.24047852 C-45.07049037 56.44009399 -44.86302349 59.63993638 -44.65625 62.83984375 C-44.59062866 63.82145981 -44.52500732 64.80307587 -44.45739746 65.81443787 C-44.09057524 71.55716767 -43.93792896 77.24549718 -44 83 C-46.73356381 84.3667819 -49.13644479 84.34530624 -52.1875 84.5625 C-53.84845703 84.68818359 -53.84845703 84.68818359 -55.54296875 84.81640625 C-62.01731926 85.1702048 -68.51800248 85.03316004 -75 85 C-78.58165209 46.14796541 -78.58165209 46.14796541 -78 29 C-78.84433594 29.12117188 -79.68867187 29.24234375 -80.55859375 29.3671875 C-96.30201745 31.42826009 -112.15554454 32.12808535 -128 33 C-128.58516646 29.17920726 -129.12764397 25.46607187 -129.09765625 21.59765625 C-129.09443359 20.85322266 -129.09121094 20.10878906 -129.08789062 19.34179688 C-129.07951172 18.58962891 -129.07113281 17.83746094 -129.0625 17.0625 C-129.05798828 16.28326172 -129.05347656 15.50402344 -129.04882812 14.70117188 C-129.03716908 12.80074732 -129.01923877 10.90036294 -129 9 C-125.4226438 7.9272913 -121.96735822 7.75263297 -118.24609375 7.5703125 C-116.84146883 7.49809598 -115.43684657 7.42582775 -114.03222656 7.35351562 C-113.28589966 7.31653564 -112.53957275 7.27955566 -111.77062988 7.24145508 C-96.75245544 6.49184286 -81.74968212 5.55397382 -66.75 4.5 C-65.83161346 4.43558716 -64.91322693 4.37117432 -63.9670105 4.30480957 C-52.5457562 3.50018109 -41.13332431 2.62744221 -29.72680664 1.63330078 C-19.8605325 0.78629303 -9.90701747 0 0 0 Z " fill="#A085BD" transform="translate(718,108)"/>
<path d="M0 0 C3.48005727 0.28159173 6.95880012 0.57714327 10.4375 0.875 C11.41138672 0.95363281 12.38527344 1.03226562 13.38867188 1.11328125 C19.41867094 1.63762899 25.12144293 2.55315762 31 4 C31.12667248 10.4963716 30.67888367 16.6667941 29.79296875 23.09765625 C29.66772324 24.04240311 29.54247772 24.98714996 29.41343689 25.96052551 C29.0100661 28.99524817 28.59880165 32.02884311 28.1875 35.0625 C27.9099912 37.14135169 27.63313706 39.22029088 27.35693359 41.29931641 C26.94808802 44.37609254 26.53885561 47.45281019 26.12738037 50.52923584 C25.08735083 58.30647908 24.08721103 66.08770314 23.125 73.875 C23.00535889 74.84058838 22.88571777 75.80617676 22.76245117 76.80102539 C22.50710304 78.86720259 22.25330417 80.93357122 22 83 C14.71976924 82.4126446 7.5279599 81.56542155 0.3125 80.4375 C-0.59177734 80.29892578 -1.49605469 80.16035156 -2.42773438 80.01757812 C-4.61896625 79.68135736 -6.80968692 79.34214589 -9 79 C-8.42078855 68.77668982 -7.46571243 58.66203313 -6.1875 48.5 C-6.01242267 47.08344838 -5.83762358 45.66686235 -5.66308594 44.25024414 C-3.83771765 29.49233721 -1.92855062 14.74473069 0 0 Z " fill="#A085BD" transform="translate(775,111)"/>
<path d="M0 0 C2.87035071 3.13536086 4.87105396 6.38234417 6.7331543 10.18579102 C7.23014328 11.19356094 7.72713226 12.20133087 8.23918152 13.23963928 C8.7622438 14.31684738 9.28530609 15.39405548 9.82421875 16.50390625 C10.37108841 17.61934311 10.91795807 18.73477997 11.48139954 19.88401794 C12.92738447 22.8377211 14.36750924 25.794192 15.80541992 28.75183105 C16.68817988 30.56389561 17.57487618 32.37397468 18.46313477 34.18334961 C20.17130096 37.66303528 21.87385299 41.14540318 23.57421875 44.62890625 C24.10335373 45.70813858 24.63248871 46.78737091 25.17765808 47.89930725 C25.66519058 48.90392502 26.15272308 49.90854279 26.6550293 50.94360352 C27.08486618 51.82564957 27.51470306 52.70769562 27.95756531 53.61647034 C28.89039034 55.74937723 29.52307129 57.72765491 30 60 C28.56988027 60.86646667 27.13059381 61.71781829 25.6875 62.5625 C24.88699219 63.03816406 24.08648437 63.51382812 23.26171875 64.00390625 C21 65 21 65 18 64 C16.47290039 61.54516602 16.47290039 61.54516602 14.84765625 58.25390625 C14.55109131 57.65939667 14.25452637 57.06488708 13.94897461 56.45236206 C12.97616912 54.49413573 12.01878353 52.52884152 11.0625 50.5625 C10.39612812 49.2075786 9.72937654 47.85284388 9.06225586 46.49829102 C7.0220009 42.34154004 5.00800595 38.17240563 3 34 C2.68627441 33.34978882 2.37254883 32.69957764 2.04931641 32.02966309 C0.03094446 27.84284743 -1.9610968 23.64434203 -3.9375 19.4375 C-4.45111084 18.35734619 -4.96472168 17.27719238 -5.49389648 16.16430664 C-5.95868408 15.16004639 -6.42347168 14.15578613 -6.90234375 13.12109375 C-7.30960693 12.2489624 -7.71687012 11.37683105 -8.13647461 10.47827148 C-9.07102324 7.79616712 -9.24764025 5.81949684 -9 3 C-6.74221069 -0.63754945 -4.02433879 -0.6570349 0 0 Z " fill="#FCFCFD" transform="translate(123,1082)"/>
<path d="M0 0 C2.875 0.875 2.875 0.875 4.875 2.875 C5.60430684 8.21565321 4.04850888 10.72529331 0.875 14.9375 C0.43784668 15.52547363 0.00069336 16.11344727 -0.44970703 16.71923828 C-1.99247345 18.78344398 -3.55788672 20.82922299 -5.125 22.875 C-6.39373738 24.54779174 -7.66193936 26.22098967 -8.9296875 27.89453125 C-11.65065642 31.47898595 -14.38077827 35.05622747 -17.1171875 38.62890625 C-22.50657498 45.67088369 -27.81896195 52.77013466 -33.125 59.875 C-36.67725704 58.16064986 -39.86521634 56.09757977 -43.125 53.875 C-42.50921436 50.2944716 -41.05731978 48.16220702 -38.84375 45.3125 C-38.17102051 44.43916016 -37.49829102 43.56582031 -36.80517578 42.66601562 C-36.08571777 41.74498047 -35.36625977 40.82394531 -34.625 39.875 C-33.15332817 37.96899523 -31.68197171 36.06274692 -30.2109375 34.15625 C-29.50163086 33.24101562 -28.79232422 32.32578125 -28.06152344 31.3828125 C-25.75997004 28.40228344 -23.49901016 25.39533134 -21.25 22.375 C-18.12118028 18.19523315 -14.9791872 14.02613151 -11.8125 9.875 C-11.19882568 9.06385742 -11.19882568 9.06385742 -10.57275391 8.23632812 C-4.13890246 -0.1655561 -4.13890246 -0.1655561 0 0 Z " fill="#FCFCFD" transform="translate(198.125,388.125)"/>
<path d="M0 0 C2.5625 0.3125 2.5625 0.3125 4.20594788 1.46560669 C8.86596974 7.81004643 5.13327556 22.04952311 4.28515625 29.5078125 C4.15435165 30.70308563 4.02354706 31.89835876 3.88877869 33.12985229 C3.61383402 35.62925445 3.33552439 38.1282886 3.05395508 40.62695312 C2.62231053 44.46139147 2.20194136 48.29694533 1.78320312 52.1328125 C1.51367398 54.57038481 1.2435146 57.00788753 0.97265625 59.4453125 C0.84657486 60.5921048 0.72049347 61.73889709 0.59059143 62.92044067 C0.41051796 64.50887283 0.41051796 64.50887283 0.22680664 66.12939453 C0.1224379 67.06059113 0.01806915 67.99178772 -0.08946228 68.95120239 C-0.4375 71.3125 -0.4375 71.3125 -1.4375 74.3125 C-5.30736958 74.38692057 -8.7110915 74.35952186 -12.4375 73.3125 C-11.83227173 61.14019344 -10.66406845 49.05910167 -9.33569336 36.9465332 C-8.99795512 33.85628975 -8.66960036 30.76513942 -8.34179688 27.67382812 C-8.12556271 25.6796264 -7.90878523 23.6854835 -7.69140625 21.69140625 C-7.59549698 20.78185684 -7.49958771 19.87230743 -7.40077209 18.93519592 C-5.36892274 0.68832343 -5.36892274 0.68832343 0 0 Z " fill="#FDFCFD" transform="translate(60.4375,716.6875)"/>
<path d="M0 0 C0.66 0.33 1.32 0.66 2 1 C1.37351562 1.60328125 0.74703125 2.2065625 0.1015625 2.828125 C-0.71570313 3.62734375 -1.53296875 4.4265625 -2.375 5.25 C-3.18710937 6.03890625 -3.99921875 6.8278125 -4.8359375 7.640625 C-7.01225797 9.78436935 -7.01225797 9.78436935 -7.93554688 11.94702148 C-9.10069993 14.19421691 -10.33720836 15.49967697 -12.1953125 17.20703125 C-12.82453613 17.78984863 -13.45375977 18.37266602 -14.10205078 18.97314453 C-15.10341064 19.88362549 -15.10341064 19.88362549 -16.125 20.8125 C-16.80933105 21.44269043 -17.49366211 22.07288086 -18.19873047 22.72216797 C-22.05716053 26.26464946 -25.95232051 29.7586636 -29.92578125 33.171875 C-32.19775698 35.17429429 -34.40991543 37.23313117 -36.6237793 39.29931641 C-42.88378278 45.14029696 -49.28976659 50.67484483 -56 56 C-56 51.06810848 -52.3179912 48.40697947 -49 45 C-47.15862624 43.29532211 -45.2723723 41.66288579 -43.359375 40.0390625 C-40.38427182 37.46786405 -37.5063842 34.80027302 -34.625 32.125 C-30.77427159 28.55538689 -26.91121776 25.00353382 -23 21.5 C-19.03615197 17.94486298 -15.10384574 14.35727674 -11.1875 10.75 C-10.64802734 10.25435547 -10.10855469 9.75871094 -9.55273438 9.24804688 C-6.29073928 6.23728618 -3.11871345 3.15906649 0 0 Z " fill="#A78EC2" transform="translate(930,595)"/>
</svg>
